<mxfile host="65bd71144e">
    <diagram id="z5LGSB4nbISP4Bl6MHQh" name="Page-1">
        <mxGraphModel dx="3095" dy="1688" grid="1" gridSize="10" guides="1" tooltips="1" connect="1" arrows="1" fold="1" page="1" pageScale="1" pageWidth="850" pageHeight="1100" math="0" shadow="0">
            <root>
                <mxCell id="0"/>
                <mxCell id="1" parent="0"/>
                <mxCell id="76" style="edgeStyle=orthogonalEdgeStyle;rounded=0;orthogonalLoop=1;jettySize=auto;html=1;exitX=0.5;exitY=1;exitDx=0;exitDy=0;" parent="1" edge="1">
                    <mxGeometry relative="1" as="geometry">
                        <mxPoint x="-277" y="-124.00000000000023" as="sourcePoint"/>
                        <mxPoint x="-277" y="-124.00000000000023" as="targetPoint"/>
                    </mxGeometry>
                </mxCell>
                <mxCell id="236" value="&lt;span style=&quot;font-size: 18px&quot;&gt;USERS&lt;/span&gt;" style="rounded=0;whiteSpace=wrap;html=1;align=center;" parent="1" vertex="1">
                    <mxGeometry x="-1022" y="-124" width="120" height="40" as="geometry"/>
                </mxCell>
                <mxCell id="299" style="edgeStyle=orthogonalEdgeStyle;rounded=0;orthogonalLoop=1;jettySize=auto;html=1;exitX=1;exitY=0.5;exitDx=0;exitDy=0;entryX=0.5;entryY=1;entryDx=0;entryDy=0;endArrow=none;endFill=0;" parent="1" source="237" target="272" edge="1">
                    <mxGeometry relative="1" as="geometry"/>
                </mxCell>
                <mxCell id="302" value="" style="edgeStyle=orthogonalEdgeStyle;rounded=0;orthogonalLoop=1;jettySize=auto;html=1;endArrow=none;endFill=0;" parent="1" source="237" target="301" edge="1">
                    <mxGeometry relative="1" as="geometry"/>
                </mxCell>
                <mxCell id="237" value="&lt;span style=&quot;font-size: 18px&quot;&gt;MANAGER&lt;/span&gt;" style="rounded=0;whiteSpace=wrap;html=1;align=center;" parent="1" vertex="1">
                    <mxGeometry x="-541" y="236.5" width="120" height="40" as="geometry"/>
                </mxCell>
                <mxCell id="284" value="" style="edgeStyle=orthogonalEdgeStyle;rounded=0;orthogonalLoop=1;jettySize=auto;html=1;endArrow=none;endFill=0;" parent="1" source="239" target="261" edge="1">
                    <mxGeometry relative="1" as="geometry"/>
                </mxCell>
                <mxCell id="308" value="" style="edgeStyle=orthogonalEdgeStyle;rounded=0;orthogonalLoop=1;jettySize=auto;html=1;endArrow=none;endFill=0;" parent="1" source="239" target="280" edge="1">
                    <mxGeometry relative="1" as="geometry"/>
                </mxCell>
                <mxCell id="239" value="&lt;span style=&quot;font-size: 18px&quot;&gt;ACCOUNT&lt;/span&gt;" style="rounded=0;whiteSpace=wrap;html=1;align=center;" parent="1" vertex="1">
                    <mxGeometry x="-1022" y="33" width="120" height="40" as="geometry"/>
                </mxCell>
                <mxCell id="241" value="&lt;span style=&quot;font-size: 18px&quot;&gt;CHECKING&lt;/span&gt;" style="rounded=0;whiteSpace=wrap;html=1;align=center;" parent="1" vertex="1">
                    <mxGeometry x="-1182" y="-24" width="120" height="40" as="geometry"/>
                </mxCell>
                <mxCell id="242" value="&lt;span style=&quot;font-size: 18px&quot;&gt;SAVING&lt;/span&gt;" style="rounded=0;whiteSpace=wrap;html=1;align=center;" parent="1" vertex="1">
                    <mxGeometry x="-1182" y="96" width="120" height="40" as="geometry"/>
                </mxCell>
                <mxCell id="304" value="" style="edgeStyle=orthogonalEdgeStyle;rounded=0;orthogonalLoop=1;jettySize=auto;html=1;endArrow=none;endFill=0;" parent="1" source="244" target="268" edge="1">
                    <mxGeometry relative="1" as="geometry"/>
                </mxCell>
                <mxCell id="244" value="&lt;span style=&quot;font-size: 18px&quot;&gt;SUPPLIER&lt;/span&gt;" style="rounded=0;whiteSpace=wrap;html=1;align=center;" parent="1" vertex="1">
                    <mxGeometry x="-782" y="236" width="120" height="40" as="geometry"/>
                </mxCell>
                <mxCell id="245" value="&lt;span style=&quot;font-size: 18px&quot;&gt;PRODUCT&lt;/span&gt;" style="rounded=0;whiteSpace=wrap;html=1;align=center;" parent="1" vertex="1">
                    <mxGeometry x="-782" y="36" width="120" height="40" as="geometry"/>
                </mxCell>
                <mxCell id="248" value="&lt;span style=&quot;font-size: 18px&quot;&gt;INVEST&lt;/span&gt;" style="rounded=0;whiteSpace=wrap;html=1;align=center;" parent="1" vertex="1">
                    <mxGeometry x="-584.5" y="116" width="120" height="40" as="geometry"/>
                </mxCell>
                <mxCell id="249" value="&lt;span style=&quot;font-size: 18px&quot;&gt;LOAN&lt;/span&gt;" style="rounded=0;whiteSpace=wrap;html=1;align=center;" parent="1" vertex="1">
                    <mxGeometry x="-584.5" y="36" width="120" height="40" as="geometry"/>
                </mxCell>
                <mxCell id="250" value="&lt;span style=&quot;font-size: 18px&quot;&gt;INSURANCE&lt;/span&gt;" style="rounded=0;whiteSpace=wrap;html=1;align=center;" parent="1" vertex="1">
                    <mxGeometry x="-584.5" y="-44" width="120" height="40" as="geometry"/>
                </mxCell>
                <mxCell id="282" value="" style="edgeStyle=orthogonalEdgeStyle;rounded=0;orthogonalLoop=1;jettySize=auto;html=1;endArrow=none;endFill=0;" parent="1" source="259" edge="1">
                    <mxGeometry relative="1" as="geometry">
                        <mxPoint x="-1002" y="-84" as="targetPoint"/>
                    </mxGeometry>
                </mxCell>
                <mxCell id="283" value="" style="edgeStyle=orthogonalEdgeStyle;rounded=0;orthogonalLoop=1;jettySize=auto;html=1;endArrow=none;endFill=0;" parent="1" edge="1">
                    <mxGeometry relative="1" as="geometry">
                        <mxPoint x="-1000.990291262136" y="-5.259708737863775" as="sourcePoint"/>
                        <mxPoint x="-1002" y="33" as="targetPoint"/>
                    </mxGeometry>
                </mxCell>
                <mxCell id="259" value="" style="rhombus;whiteSpace=wrap;html=1;strokeWidth=2;opacity=50;" parent="1" vertex="1">
                    <mxGeometry x="-1022" y="-45.25" width="40" height="40" as="geometry"/>
                </mxCell>
                <mxCell id="285" value="" style="edgeStyle=orthogonalEdgeStyle;rounded=0;orthogonalLoop=1;jettySize=auto;html=1;endArrow=none;endFill=0;" parent="1" source="261" target="265" edge="1">
                    <mxGeometry relative="1" as="geometry"/>
                </mxCell>
                <mxCell id="261" value="" style="shape=rhombus;double=1;perimeter=rhombusPerimeter;whiteSpace=wrap;html=1;align=center;" parent="1" vertex="1">
                    <mxGeometry x="-982" y="136" width="40" height="40" as="geometry"/>
                </mxCell>
                <mxCell id="265" value="&lt;span style=&quot;font-size: 18px&quot;&gt;CREDITCARD&lt;/span&gt;" style="shape=ext;margin=3;double=1;whiteSpace=wrap;html=1;align=center;" parent="1" vertex="1">
                    <mxGeometry x="-1027" y="231" width="130" height="50" as="geometry"/>
                </mxCell>
                <mxCell id="293" value="" style="edgeStyle=orthogonalEdgeStyle;rounded=0;orthogonalLoop=1;jettySize=auto;html=1;endArrow=none;endFill=0;" parent="1" source="267" target="236" edge="1">
                    <mxGeometry relative="1" as="geometry"/>
                </mxCell>
                <mxCell id="367" style="edgeStyle=orthogonalEdgeStyle;rounded=0;orthogonalLoop=1;jettySize=auto;html=1;exitX=1;exitY=0.5;exitDx=0;exitDy=0;entryX=0.5;entryY=0;entryDx=0;entryDy=0;endArrow=none;endFill=0;" parent="1" source="267" target="365" edge="1">
                    <mxGeometry relative="1" as="geometry"/>
                </mxCell>
                <mxCell id="267" value="" style="rhombus;whiteSpace=wrap;html=1;strokeWidth=2;opacity=50;" parent="1" vertex="1">
                    <mxGeometry x="-742" y="-224" width="40" height="40" as="geometry"/>
                </mxCell>
                <mxCell id="305" value="" style="edgeStyle=orthogonalEdgeStyle;rounded=0;orthogonalLoop=1;jettySize=auto;html=1;endArrow=none;endFill=0;" parent="1" source="268" target="245" edge="1">
                    <mxGeometry relative="1" as="geometry"/>
                </mxCell>
                <mxCell id="268" value="" style="rhombus;whiteSpace=wrap;html=1;strokeWidth=2;opacity=50;" parent="1" vertex="1">
                    <mxGeometry x="-742" y="135" width="40" height="40" as="geometry"/>
                </mxCell>
                <mxCell id="300" style="edgeStyle=orthogonalEdgeStyle;rounded=0;orthogonalLoop=1;jettySize=auto;html=1;exitX=0.5;exitY=0;exitDx=0;exitDy=0;entryX=1;entryY=0.25;entryDx=0;entryDy=0;endArrow=none;endFill=0;" parent="1" source="272" target="365" edge="1">
                    <mxGeometry relative="1" as="geometry">
                        <mxPoint x="-417" y="-104" as="targetPoint"/>
                    </mxGeometry>
                </mxCell>
                <mxCell id="272" value="" style="rhombus;whiteSpace=wrap;html=1;strokeWidth=2;opacity=50;" parent="1" vertex="1">
                    <mxGeometry x="-417" y="73" width="40" height="40" as="geometry"/>
                </mxCell>
                <mxCell id="297" value="" style="edgeStyle=orthogonalEdgeStyle;rounded=0;orthogonalLoop=1;jettySize=auto;html=1;endArrow=none;endFill=0;" parent="1" source="273" edge="1">
                    <mxGeometry relative="1" as="geometry">
                        <mxPoint x="-662" y="-104" as="targetPoint"/>
                    </mxGeometry>
                </mxCell>
                <mxCell id="298" value="" style="edgeStyle=orthogonalEdgeStyle;rounded=0;orthogonalLoop=1;jettySize=auto;html=1;endArrow=none;endFill=0;" parent="1" source="273" edge="1">
                    <mxGeometry relative="1" as="geometry">
                        <mxPoint x="-542" y="-104" as="targetPoint"/>
                    </mxGeometry>
                </mxCell>
                <mxCell id="273" value="" style="rhombus;whiteSpace=wrap;html=1;strokeWidth=2;opacity=50;" parent="1" vertex="1">
                    <mxGeometry x="-624.5" y="-124" width="40" height="40" as="geometry"/>
                </mxCell>
                <mxCell id="290" value="" style="edgeStyle=orthogonalEdgeStyle;rounded=0;orthogonalLoop=1;jettySize=auto;html=1;endArrow=none;endFill=0;" parent="1" source="278" target="245" edge="1">
                    <mxGeometry relative="1" as="geometry"/>
                </mxCell>
                <mxCell id="317" value="" style="edgeStyle=orthogonalEdgeStyle;rounded=0;orthogonalLoop=1;jettySize=auto;html=1;endArrow=none;endFill=0;" parent="1" source="278" target="316" edge="1">
                    <mxGeometry relative="1" as="geometry">
                        <Array as="points">
                            <mxPoint x="-872" y="56"/>
                            <mxPoint x="-872" y="-25"/>
                        </Array>
                    </mxGeometry>
                </mxCell>
                <mxCell id="278" value="" style="rhombus;whiteSpace=wrap;html=1;strokeWidth=2;opacity=50;" parent="1" vertex="1">
                    <mxGeometry x="-852" y="36" width="40" height="40" as="geometry"/>
                </mxCell>
                <mxCell id="306" value="" style="edgeStyle=orthogonalEdgeStyle;rounded=0;orthogonalLoop=1;jettySize=auto;html=1;endArrow=none;endFill=0;" parent="1" source="279" target="245" edge="1">
                    <mxGeometry relative="1" as="geometry"/>
                </mxCell>
                <mxCell id="310" value="" style="edgeStyle=orthogonalEdgeStyle;rounded=0;orthogonalLoop=1;jettySize=auto;html=1;endArrow=none;endFill=0;" parent="1" source="279" target="249" edge="1">
                    <mxGeometry relative="1" as="geometry"/>
                </mxCell>
                <mxCell id="381" style="edgeStyle=orthogonalEdgeStyle;rounded=0;orthogonalLoop=1;jettySize=auto;html=1;exitX=0.5;exitY=0;exitDx=0;exitDy=0;entryX=0;entryY=0.5;entryDx=0;entryDy=0;endArrow=none;endFill=0;" parent="1" source="279" target="250" edge="1">
                    <mxGeometry relative="1" as="geometry"/>
                </mxCell>
                <mxCell id="382" style="edgeStyle=orthogonalEdgeStyle;rounded=0;orthogonalLoop=1;jettySize=auto;html=1;exitX=0.5;exitY=1;exitDx=0;exitDy=0;entryX=0;entryY=0.5;entryDx=0;entryDy=0;endArrow=none;endFill=0;" parent="1" source="279" target="248" edge="1">
                    <mxGeometry relative="1" as="geometry"/>
                </mxCell>
                <mxCell id="279" value="&lt;font style=&quot;font-size: 16px&quot;&gt;d&lt;/font&gt;" style="ellipse;whiteSpace=wrap;html=1;aspect=fixed;" parent="1" vertex="1">
                    <mxGeometry x="-639" y="43.27" width="25.73" height="25.73" as="geometry"/>
                </mxCell>
                <mxCell id="379" style="edgeStyle=orthogonalEdgeStyle;rounded=0;orthogonalLoop=1;jettySize=auto;html=1;exitX=0;exitY=0;exitDx=0;exitDy=0;entryX=0.5;entryY=1;entryDx=0;entryDy=0;endArrow=none;endFill=0;" parent="1" source="280" target="241" edge="1">
                    <mxGeometry relative="1" as="geometry">
                        <Array as="points">
                            <mxPoint x="-1067" y="36"/>
                            <mxPoint x="-1122" y="36"/>
                        </Array>
                    </mxGeometry>
                </mxCell>
                <mxCell id="380" style="edgeStyle=orthogonalEdgeStyle;rounded=0;orthogonalLoop=1;jettySize=auto;html=1;entryX=0.5;entryY=0;entryDx=0;entryDy=0;endArrow=none;endFill=0;exitX=0;exitY=1;exitDx=0;exitDy=0;" parent="1" source="280" target="242" edge="1">
                    <mxGeometry relative="1" as="geometry">
                        <mxPoint x="-1058" y="66" as="sourcePoint"/>
                        <Array as="points">
                            <mxPoint x="-1067" y="76"/>
                            <mxPoint x="-1122" y="76"/>
                        </Array>
                    </mxGeometry>
                </mxCell>
                <mxCell id="280" value="&lt;font style=&quot;font-size: 16px&quot;&gt;d&lt;/font&gt;" style="ellipse;whiteSpace=wrap;html=1;aspect=fixed;" parent="1" vertex="1">
                    <mxGeometry x="-1071" y="40.27" width="25.73" height="25.73" as="geometry"/>
                </mxCell>
                <mxCell id="303" value="" style="edgeStyle=orthogonalEdgeStyle;rounded=0;orthogonalLoop=1;jettySize=auto;html=1;endArrow=none;endFill=0;" parent="1" source="301" target="244" edge="1">
                    <mxGeometry relative="1" as="geometry"/>
                </mxCell>
                <mxCell id="454" style="edgeStyle=none;rounded=0;orthogonalLoop=1;jettySize=auto;html=1;exitX=1;exitY=0;exitDx=0;exitDy=0;entryX=0;entryY=1;entryDx=0;entryDy=0;endArrow=none;endFill=0;" parent="1" source="301" target="453" edge="1">
                    <mxGeometry relative="1" as="geometry"/>
                </mxCell>
                <mxCell id="301" value="" style="rhombus;whiteSpace=wrap;html=1;strokeWidth=2;opacity=50;" parent="1" vertex="1">
                    <mxGeometry x="-624.5" y="236" width="40" height="40" as="geometry"/>
                </mxCell>
                <mxCell id="313" style="edgeStyle=orthogonalEdgeStyle;rounded=0;orthogonalLoop=1;jettySize=auto;html=1;endArrow=none;endFill=0;entryX=1;entryY=0.5;entryDx=0;entryDy=0;" parent="1" source="311" target="239" edge="1">
                    <mxGeometry relative="1" as="geometry">
                        <Array as="points">
                            <mxPoint x="-892" y="6"/>
                            <mxPoint x="-892" y="53"/>
                        </Array>
                    </mxGeometry>
                </mxCell>
                <mxCell id="314" style="edgeStyle=orthogonalEdgeStyle;rounded=0;orthogonalLoop=1;jettySize=auto;html=1;endArrow=none;endFill=0;entryX=0;entryY=0.5;entryDx=0;entryDy=0;" parent="1" source="311" target="239" edge="1">
                    <mxGeometry relative="1" as="geometry">
                        <Array as="points">
                            <mxPoint x="-1032" y="6"/>
                            <mxPoint x="-1032" y="53"/>
                        </Array>
                    </mxGeometry>
                </mxCell>
                <mxCell id="311" value="" style="rhombus;whiteSpace=wrap;html=1;strokeWidth=2;opacity=50;rotation=0;" parent="1" vertex="1">
                    <mxGeometry x="-982" y="-14.000000000000028" width="40" height="40" as="geometry"/>
                </mxCell>
                <mxCell id="316" value="" style="rounded=0;whiteSpace=wrap;html=1;fillColor=none;" parent="1" vertex="1">
                    <mxGeometry x="-1037" y="-130" width="150" height="210" as="geometry"/>
                </mxCell>
                <mxCell id="328" style="edgeStyle=none;rounded=0;orthogonalLoop=1;jettySize=auto;html=1;exitX=1;exitY=0;exitDx=0;exitDy=0;entryX=0.5;entryY=1;entryDx=0;entryDy=0;endArrow=none;endFill=0;" parent="1" source="318" target="265" edge="1">
                    <mxGeometry relative="1" as="geometry"/>
                </mxCell>
                <mxCell id="318" value="COST" style="ellipse;whiteSpace=wrap;html=1;align=center;strokeWidth=2;opacity=50;" parent="1" vertex="1">
                    <mxGeometry x="-1102" y="315" width="45" height="30" as="geometry"/>
                </mxCell>
                <mxCell id="329" style="edgeStyle=none;rounded=0;orthogonalLoop=1;jettySize=auto;html=1;exitX=1;exitY=0;exitDx=0;exitDy=0;endArrow=none;endFill=0;entryX=0.5;entryY=1;entryDx=0;entryDy=0;" parent="1" source="319" target="265" edge="1">
                    <mxGeometry relative="1" as="geometry">
                        <mxPoint x="-962" y="276" as="targetPoint"/>
                    </mxGeometry>
                </mxCell>
                <mxCell id="319" value="LIMIT" style="ellipse;whiteSpace=wrap;html=1;align=center;strokeWidth=2;opacity=50;" parent="1" vertex="1">
                    <mxGeometry x="-1047.77" y="315" width="45" height="30" as="geometry"/>
                </mxCell>
                <mxCell id="331" style="edgeStyle=none;rounded=0;orthogonalLoop=1;jettySize=auto;html=1;exitX=0;exitY=0;exitDx=0;exitDy=0;endArrow=none;endFill=0;entryX=0.5;entryY=1;entryDx=0;entryDy=0;" parent="1" source="320" target="265" edge="1">
                    <mxGeometry relative="1" as="geometry">
                        <mxPoint x="-962" y="276" as="targetPoint"/>
                    </mxGeometry>
                </mxCell>
                <mxCell id="320" value="RETURN&amp;nbsp;" style="ellipse;whiteSpace=wrap;html=1;align=center;strokeWidth=2;opacity=50;" parent="1" vertex="1">
                    <mxGeometry x="-919.5" y="315" width="60" height="30" as="geometry"/>
                </mxCell>
                <mxCell id="330" style="edgeStyle=none;rounded=0;orthogonalLoop=1;jettySize=auto;html=1;exitX=0.5;exitY=0;exitDx=0;exitDy=0;endArrow=none;endFill=0;entryX=0.5;entryY=1;entryDx=0;entryDy=0;" parent="1" source="321" target="265" edge="1">
                    <mxGeometry relative="1" as="geometry">
                        <mxPoint x="-962" y="286" as="targetPoint"/>
                    </mxGeometry>
                </mxCell>
                <mxCell id="321" value="DUEDATE" style="ellipse;whiteSpace=wrap;html=1;align=center;strokeWidth=2;opacity=50;" parent="1" vertex="1">
                    <mxGeometry x="-994.5" y="315" width="65" height="30" as="geometry"/>
                </mxCell>
                <mxCell id="333" style="edgeStyle=none;rounded=0;orthogonalLoop=1;jettySize=auto;html=1;exitX=0.5;exitY=0;exitDx=0;exitDy=0;endArrow=none;endFill=0;entryX=0.5;entryY=1;entryDx=0;entryDy=0;" parent="1" source="322" target="265" edge="1">
                    <mxGeometry relative="1" as="geometry">
                        <mxPoint x="-962" y="276" as="targetPoint"/>
                    </mxGeometry>
                </mxCell>
                <mxCell id="322" value="EXISTMONEY" style="ellipse;whiteSpace=wrap;html=1;align=center;strokeWidth=2;opacity=50;dashed=1;" parent="1" vertex="1">
                    <mxGeometry x="-854.5" y="315" width="90" height="34" as="geometry"/>
                </mxCell>
                <mxCell id="327" style="rounded=0;orthogonalLoop=1;jettySize=auto;html=1;exitX=1;exitY=0;exitDx=0;exitDy=0;entryX=0.5;entryY=1;entryDx=0;entryDy=0;endArrow=none;endFill=0;" parent="1" source="325" target="265" edge="1">
                    <mxGeometry relative="1" as="geometry"/>
                </mxCell>
                <mxCell id="325" value="&lt;u&gt;ID&lt;/u&gt;" style="ellipse;whiteSpace=wrap;html=1;align=center;strokeWidth=2;opacity=50;" parent="1" vertex="1">
                    <mxGeometry x="-1159.5" y="316" width="45" height="30" as="geometry"/>
                </mxCell>
                <mxCell id="334" value="APPLY" style="text;html=1;strokeColor=none;fillColor=none;align=center;verticalAlign=middle;whiteSpace=wrap;rounded=0;opacity=50;rotation=-90;" parent="1" vertex="1">
                    <mxGeometry x="-1012" y="145" width="40" height="20" as="geometry"/>
                </mxCell>
                <mxCell id="336" value="1..1" style="text;html=1;strokeColor=none;fillColor=none;align=center;verticalAlign=middle;whiteSpace=wrap;rounded=0;opacity=50;rotation=-90;" parent="1" vertex="1">
                    <mxGeometry x="-992.5" y="83" width="40" height="20" as="geometry"/>
                </mxCell>
                <mxCell id="337" value="1..N" style="text;html=1;strokeColor=none;fillColor=none;align=center;verticalAlign=middle;whiteSpace=wrap;rounded=0;opacity=50;rotation=-90;" parent="1" vertex="1">
                    <mxGeometry x="-994.5" y="206" width="40" height="20" as="geometry"/>
                </mxCell>
                <mxCell id="341" style="edgeStyle=none;rounded=0;orthogonalLoop=1;jettySize=auto;html=1;exitX=1;exitY=0;exitDx=0;exitDy=0;endArrow=none;endFill=0;entryX=0.5;entryY=1;entryDx=0;entryDy=0;" parent="1" source="339" target="265" edge="1">
                    <mxGeometry relative="1" as="geometry">
                        <mxPoint x="-962" y="276" as="targetPoint"/>
                    </mxGeometry>
                </mxCell>
                <mxCell id="339" value="&lt;span style=&quot;border-bottom: 1px dotted&quot;&gt;ACCID&lt;/span&gt;" style="ellipse;whiteSpace=wrap;html=1;align=center;fillColor=none;" parent="1" vertex="1">
                    <mxGeometry x="-1220" y="315" width="50" height="30" as="geometry"/>
                </mxCell>
                <mxCell id="342" value="ADVISED_BY" style="text;html=1;strokeColor=none;fillColor=none;align=center;verticalAlign=middle;whiteSpace=wrap;rounded=0;opacity=50;" parent="1" vertex="1">
                    <mxGeometry x="-742" y="-244" width="40" height="20" as="geometry"/>
                </mxCell>
                <mxCell id="343" value="0..N" style="text;html=1;strokeColor=none;fillColor=none;align=center;verticalAlign=middle;whiteSpace=wrap;rounded=0;opacity=50;rotation=0;" parent="1" vertex="1">
                    <mxGeometry x="-522" y="-143" width="40" height="20" as="geometry"/>
                </mxCell>
                <mxCell id="345" value="PURCHASE" style="text;html=1;strokeColor=none;fillColor=none;align=center;verticalAlign=middle;whiteSpace=wrap;rounded=0;opacity=50;" parent="1" vertex="1">
                    <mxGeometry x="-852" y="73.53" width="40" height="20" as="geometry"/>
                </mxCell>
                <mxCell id="346" value="0..N" style="text;html=1;strokeColor=none;fillColor=none;align=center;verticalAlign=middle;whiteSpace=wrap;rounded=0;opacity=50;rotation=0;" parent="1" vertex="1">
                    <mxGeometry x="-817" y="53.53" width="40" height="20" as="geometry"/>
                </mxCell>
                <mxCell id="347" value="0..N" style="text;html=1;strokeColor=none;fillColor=none;align=center;verticalAlign=middle;whiteSpace=wrap;rounded=0;opacity=50;rotation=0;" parent="1" vertex="1">
                    <mxGeometry x="-581" y="256" width="40" height="20" as="geometry"/>
                </mxCell>
                <mxCell id="458" style="edgeStyle=none;rounded=0;orthogonalLoop=1;jettySize=auto;html=1;exitX=0;exitY=0.25;exitDx=0;exitDy=0;entryX=0.5;entryY=0;entryDx=0;entryDy=0;endArrow=none;endFill=0;" parent="1" source="348" target="278" edge="1">
                    <mxGeometry relative="1" as="geometry"/>
                </mxCell>
                <mxCell id="348" value="0..M" style="text;html=1;strokeColor=none;fillColor=none;align=center;verticalAlign=middle;whiteSpace=wrap;rounded=0;opacity=50;rotation=90;" parent="1" vertex="1">
                    <mxGeometry x="-882" y="-23" width="40" height="20" as="geometry"/>
                </mxCell>
                <mxCell id="350" value="WORK_IN" style="text;html=1;strokeColor=none;fillColor=none;align=center;verticalAlign=middle;whiteSpace=wrap;rounded=0;opacity=50;" parent="1" vertex="1">
                    <mxGeometry x="-624.5" y="-142" width="40" height="20" as="geometry"/>
                </mxCell>
                <mxCell id="351" value="1..1" style="text;html=1;strokeColor=none;fillColor=none;align=center;verticalAlign=middle;whiteSpace=wrap;rounded=0;opacity=50;rotation=0;" parent="1" vertex="1">
                    <mxGeometry x="-577" y="-104" width="40" height="20" as="geometry"/>
                </mxCell>
                <mxCell id="352" value="1..N" style="text;html=1;strokeColor=none;fillColor=none;align=center;verticalAlign=middle;whiteSpace=wrap;rounded=0;opacity=50;rotation=0;" parent="1" vertex="1">
                    <mxGeometry x="-664.5" y="-104" width="40" height="20" as="geometry"/>
                </mxCell>
                <mxCell id="354" value="PROVIDE" style="text;html=1;strokeColor=none;fillColor=none;align=center;verticalAlign=middle;whiteSpace=wrap;rounded=0;opacity=50;rotation=-90;" parent="1" vertex="1">
                    <mxGeometry x="-772" y="146" width="40" height="20" as="geometry"/>
                </mxCell>
                <mxCell id="355" value="1..1" style="text;html=1;strokeColor=none;fillColor=none;align=center;verticalAlign=middle;whiteSpace=wrap;rounded=0;opacity=50;rotation=-90;" parent="1" vertex="1">
                    <mxGeometry x="-732" y="86" width="40" height="20" as="geometry"/>
                </mxCell>
                <mxCell id="356" value="1..N" style="text;html=1;strokeColor=none;fillColor=none;align=center;verticalAlign=middle;whiteSpace=wrap;rounded=0;opacity=50;rotation=-90;" parent="1" vertex="1">
                    <mxGeometry x="-732" y="207" width="40" height="20" as="geometry"/>
                </mxCell>
                <mxCell id="358" value="NEGOTIATE" style="text;html=1;strokeColor=none;fillColor=none;align=center;verticalAlign=middle;whiteSpace=wrap;rounded=0;opacity=50;" parent="1" vertex="1">
                    <mxGeometry x="-624.5" y="216" width="40" height="20" as="geometry"/>
                </mxCell>
                <mxCell id="360" value="1..M" style="text;html=1;strokeColor=none;fillColor=none;align=center;verticalAlign=middle;whiteSpace=wrap;rounded=0;opacity=50;rotation=0;" parent="1" vertex="1">
                    <mxGeometry x="-664.5" y="256" width="40" height="20" as="geometry"/>
                </mxCell>
                <mxCell id="361" value="MANAGE" style="text;html=1;strokeColor=none;fillColor=none;align=center;verticalAlign=middle;whiteSpace=wrap;rounded=0;opacity=50;rotation=-90;" parent="1" vertex="1">
                    <mxGeometry x="-445" y="81" width="40" height="20" as="geometry"/>
                </mxCell>
                <mxCell id="362" value="1..N" style="text;html=1;strokeColor=none;fillColor=none;align=center;verticalAlign=middle;whiteSpace=wrap;rounded=0;opacity=50;rotation=-90;" parent="1" vertex="1">
                    <mxGeometry x="-407" y="-95" width="40" height="20" as="geometry"/>
                </mxCell>
                <mxCell id="363" value="&lt;span style=&quot;font-size: 18px&quot;&gt;DEPARTMENT&lt;/span&gt;" style="rounded=0;whiteSpace=wrap;html=1;align=center;" parent="1" vertex="1">
                    <mxGeometry x="-784.5" y="-122" width="125" height="40" as="geometry"/>
                </mxCell>
                <mxCell id="365" value="&lt;span style=&quot;font-size: 18px&quot;&gt;EMPLOYEE&lt;/span&gt;" style="rounded=0;whiteSpace=wrap;html=1;align=center;" parent="1" vertex="1">
                    <mxGeometry x="-541" y="-122" width="120" height="40" as="geometry"/>
                </mxCell>
                <mxCell id="366" value="1..1" style="text;html=1;strokeColor=none;fillColor=none;align=center;verticalAlign=middle;whiteSpace=wrap;rounded=0;opacity=50;rotation=-90;" parent="1" vertex="1">
                    <mxGeometry x="-406" y="225" width="40" height="20" as="geometry"/>
                </mxCell>
                <mxCell id="374" style="edgeStyle=orthogonalEdgeStyle;rounded=0;orthogonalLoop=1;jettySize=auto;html=1;exitX=0.5;exitY=0;exitDx=0;exitDy=0;entryX=0.5;entryY=1;entryDx=0;entryDy=0;endArrow=none;endFill=0;" parent="1" source="371" target="363" edge="1">
                    <mxGeometry relative="1" as="geometry"/>
                </mxCell>
                <mxCell id="375" style="edgeStyle=orthogonalEdgeStyle;rounded=0;orthogonalLoop=1;jettySize=auto;html=1;exitX=0.5;exitY=1;exitDx=0;exitDy=0;entryX=0.5;entryY=0;entryDx=0;entryDy=0;endArrow=none;endFill=0;" parent="1" source="371" target="245" edge="1">
                    <mxGeometry relative="1" as="geometry"/>
                </mxCell>
                <mxCell id="371" value="" style="rhombus;whiteSpace=wrap;html=1;strokeWidth=2;opacity=50;" parent="1" vertex="1">
                    <mxGeometry x="-742" y="-43" width="40" height="40" as="geometry"/>
                </mxCell>
                <mxCell id="376" value="REQUIRE" style="text;html=1;strokeColor=none;fillColor=none;align=center;verticalAlign=middle;whiteSpace=wrap;rounded=0;opacity=50;rotation=-90;" parent="1" vertex="1">
                    <mxGeometry x="-772" y="-29" width="40" height="20" as="geometry"/>
                </mxCell>
                <mxCell id="377" value="1..N" style="text;html=1;strokeColor=none;fillColor=none;align=center;verticalAlign=middle;whiteSpace=wrap;rounded=0;opacity=50;rotation=-90;" parent="1" vertex="1">
                    <mxGeometry x="-732" y="8" width="40" height="20" as="geometry"/>
                </mxCell>
                <mxCell id="378" value="1..1" style="text;html=1;strokeColor=none;fillColor=none;align=center;verticalAlign=middle;whiteSpace=wrap;rounded=0;opacity=50;rotation=-90;" parent="1" vertex="1">
                    <mxGeometry x="-732" y="-75" width="40" height="20" as="geometry"/>
                </mxCell>
                <mxCell id="383" value="&lt;font style=&quot;font-size: 16px&quot;&gt;p&lt;/font&gt;" style="text;html=1;strokeColor=none;fillColor=none;align=center;verticalAlign=middle;whiteSpace=wrap;rounded=0;opacity=50;rotation=0;" parent="1" vertex="1">
                    <mxGeometry x="-664.5" y="20.269999999999996" width="40" height="20" as="geometry"/>
                </mxCell>
                <mxCell id="384" value="&lt;font style=&quot;font-size: 16px&quot;&gt;t&lt;/font&gt;" style="text;html=1;strokeColor=none;fillColor=none;align=center;verticalAlign=middle;whiteSpace=wrap;rounded=0;opacity=50;rotation=0;" parent="1" vertex="1">
                    <mxGeometry x="-1072" y="15.999999999999996" width="40" height="20" as="geometry"/>
                </mxCell>
                <mxCell id="386" value="" style="endArrow=none;html=1;" parent="1" edge="1">
                    <mxGeometry width="50" height="50" relative="1" as="geometry">
                        <mxPoint x="-1084.5" y="46" as="sourcePoint"/>
                        <mxPoint x="-1084.5" y="26" as="targetPoint"/>
                        <Array as="points">
                            <mxPoint x="-1114.5" y="36"/>
                            <mxPoint x="-1084.5" y="26"/>
                        </Array>
                    </mxGeometry>
                </mxCell>
                <mxCell id="387" value="" style="endArrow=none;html=1;" parent="1" edge="1">
                    <mxGeometry width="50" height="50" relative="1" as="geometry">
                        <mxPoint x="-1083.5" y="86" as="sourcePoint"/>
                        <mxPoint x="-1083.5" y="66" as="targetPoint"/>
                        <Array as="points">
                            <mxPoint x="-1113.5" y="76"/>
                            <mxPoint x="-1083.5" y="66"/>
                        </Array>
                    </mxGeometry>
                </mxCell>
                <mxCell id="388" value="" style="endArrow=none;html=1;" parent="1" edge="1">
                    <mxGeometry width="50" height="50" relative="1" as="geometry">
                        <mxPoint x="-618.25" y="-14" as="sourcePoint"/>
                        <mxPoint x="-618.25" y="-34" as="targetPoint"/>
                        <Array as="points">
                            <mxPoint x="-590.75" y="-24"/>
                            <mxPoint x="-618.25" y="-34"/>
                        </Array>
                    </mxGeometry>
                </mxCell>
                <mxCell id="389" value="" style="endArrow=none;html=1;" parent="1" edge="1">
                    <mxGeometry width="50" height="50" relative="1" as="geometry">
                        <mxPoint x="-613.27" y="66.14" as="sourcePoint"/>
                        <mxPoint x="-613.27" y="46.14" as="targetPoint"/>
                        <Array as="points">
                            <mxPoint x="-585.77" y="56.14"/>
                            <mxPoint x="-613.27" y="46.14"/>
                        </Array>
                    </mxGeometry>
                </mxCell>
                <mxCell id="390" value="" style="endArrow=none;html=1;" parent="1" edge="1">
                    <mxGeometry width="50" height="50" relative="1" as="geometry">
                        <mxPoint x="-619.25" y="146" as="sourcePoint"/>
                        <mxPoint x="-619.25" y="126" as="targetPoint"/>
                        <Array as="points">
                            <mxPoint x="-591.75" y="136"/>
                            <mxPoint x="-619.25" y="126"/>
                        </Array>
                    </mxGeometry>
                </mxCell>
                <mxCell id="391" value="CREATE" style="text;html=1;strokeColor=none;fillColor=none;align=center;verticalAlign=middle;whiteSpace=wrap;rounded=0;opacity=50;rotation=-90;" parent="1" vertex="1">
                    <mxGeometry x="-1048" y="-35" width="40" height="20" as="geometry"/>
                </mxCell>
                <mxCell id="392" value="0..N" style="text;html=1;strokeColor=none;fillColor=none;align=center;verticalAlign=middle;whiteSpace=wrap;rounded=0;opacity=50;rotation=-90;" parent="1" vertex="1">
                    <mxGeometry x="-1028" y="10" width="40" height="20" as="geometry"/>
                </mxCell>
                <mxCell id="393" value="1..1" style="text;html=1;strokeColor=none;fillColor=none;align=center;verticalAlign=middle;whiteSpace=wrap;rounded=0;opacity=50;rotation=-90;" parent="1" vertex="1">
                    <mxGeometry x="-1028" y="-82" width="40" height="20" as="geometry"/>
                </mxCell>
                <mxCell id="394" value="AGGREGATION" style="text;html=1;strokeColor=none;fillColor=none;align=center;verticalAlign=middle;whiteSpace=wrap;rounded=0;opacity=50;rotation=0;" parent="1" vertex="1">
                    <mxGeometry x="-1108" y="-122" width="40" height="20" as="geometry"/>
                </mxCell>
                <mxCell id="395" value="TRANSFER" style="text;html=1;strokeColor=none;fillColor=none;align=center;verticalAlign=middle;whiteSpace=wrap;rounded=0;opacity=50;" parent="1" vertex="1">
                    <mxGeometry x="-969.5" y="-29" width="40" height="20" as="geometry"/>
                </mxCell>
                <mxCell id="397" value="0..M" style="text;html=1;strokeColor=none;fillColor=none;align=center;verticalAlign=middle;whiteSpace=wrap;rounded=0;opacity=50;rotation=0;" parent="1" vertex="1">
                    <mxGeometry x="-926" y="5" width="40" height="20" as="geometry"/>
                </mxCell>
                <mxCell id="398" value="0..N" style="text;html=1;strokeColor=none;fillColor=none;align=center;verticalAlign=middle;whiteSpace=wrap;rounded=0;opacity=50;rotation=0;" parent="1" vertex="1">
                    <mxGeometry x="-1009.77" y="2" width="40" height="20" as="geometry"/>
                </mxCell>
                <mxCell id="402" style="rounded=0;orthogonalLoop=1;jettySize=auto;html=1;exitX=0.5;exitY=0;exitDx=0;exitDy=0;entryX=0.5;entryY=1;entryDx=0;entryDy=0;endArrow=none;endFill=0;" parent="1" source="399" target="244" edge="1">
                    <mxGeometry relative="1" as="geometry"/>
                </mxCell>
                <mxCell id="399" value="&lt;u&gt;SUPID&lt;/u&gt;" style="ellipse;whiteSpace=wrap;html=1;align=center;strokeWidth=2;opacity=50;" parent="1" vertex="1">
                    <mxGeometry x="-752" y="316" width="45" height="30" as="geometry"/>
                </mxCell>
                <mxCell id="403" style="edgeStyle=none;rounded=0;orthogonalLoop=1;jettySize=auto;html=1;exitX=0.5;exitY=0;exitDx=0;exitDy=0;entryX=0.5;entryY=1;entryDx=0;entryDy=0;endArrow=none;endFill=0;" parent="1" source="400" target="244" edge="1">
                    <mxGeometry relative="1" as="geometry"/>
                </mxCell>
                <mxCell id="400" value="NAME" style="ellipse;whiteSpace=wrap;html=1;align=center;strokeWidth=2;opacity=50;" parent="1" vertex="1">
                    <mxGeometry x="-704.5" y="317" width="45" height="30" as="geometry"/>
                </mxCell>
                <mxCell id="404" style="edgeStyle=none;rounded=0;orthogonalLoop=1;jettySize=auto;html=1;exitX=0.5;exitY=0;exitDx=0;exitDy=0;entryX=0.5;entryY=1;entryDx=0;entryDy=0;endArrow=none;endFill=0;" parent="1" source="401" target="244" edge="1">
                    <mxGeometry relative="1" as="geometry"/>
                </mxCell>
                <mxCell id="401" value="CONTACT&lt;br&gt;INFO" style="ellipse;whiteSpace=wrap;html=1;align=center;strokeWidth=2;opacity=50;" parent="1" vertex="1">
                    <mxGeometry x="-658.63" y="313" width="66.63" height="41" as="geometry"/>
                </mxCell>
                <mxCell id="408" style="edgeStyle=none;rounded=0;orthogonalLoop=1;jettySize=auto;html=1;exitX=0.5;exitY=0;exitDx=0;exitDy=0;entryX=0.5;entryY=1;entryDx=0;entryDy=0;endArrow=none;endFill=0;" parent="1" source="405" target="237" edge="1">
                    <mxGeometry relative="1" as="geometry"/>
                </mxCell>
                <mxCell id="405" value="&lt;u&gt;SUPID&lt;/u&gt;" style="ellipse;whiteSpace=wrap;html=1;align=center;strokeWidth=2;opacity=50;" parent="1" vertex="1">
                    <mxGeometry x="-565" y="316" width="45" height="30" as="geometry"/>
                </mxCell>
                <mxCell id="409" style="edgeStyle=none;rounded=0;orthogonalLoop=1;jettySize=auto;html=1;exitX=0.5;exitY=0;exitDx=0;exitDy=0;entryX=0.5;entryY=1;entryDx=0;entryDy=0;endArrow=none;endFill=0;" parent="1" source="406" target="237" edge="1">
                    <mxGeometry relative="1" as="geometry"/>
                </mxCell>
                <mxCell id="406" value="NAME" style="ellipse;whiteSpace=wrap;html=1;align=center;strokeWidth=2;opacity=50;" parent="1" vertex="1">
                    <mxGeometry x="-517.5" y="317" width="45" height="30" as="geometry"/>
                </mxCell>
                <mxCell id="410" style="edgeStyle=none;rounded=0;orthogonalLoop=1;jettySize=auto;html=1;exitX=0.5;exitY=0;exitDx=0;exitDy=0;endArrow=none;endFill=0;" parent="1" source="407" edge="1">
                    <mxGeometry relative="1" as="geometry">
                        <mxPoint x="-482" y="276" as="targetPoint"/>
                    </mxGeometry>
                </mxCell>
                <mxCell id="407" value="CONTACT&lt;br&gt;INFO" style="ellipse;whiteSpace=wrap;html=1;align=center;strokeWidth=2;opacity=50;" parent="1" vertex="1">
                    <mxGeometry x="-471.63" y="313" width="66.63" height="41" as="geometry"/>
                </mxCell>
                <mxCell id="416" style="edgeStyle=none;rounded=0;orthogonalLoop=1;jettySize=auto;html=1;exitX=0.5;exitY=1;exitDx=0;exitDy=0;entryX=1.033;entryY=1.078;entryDx=0;entryDy=0;entryPerimeter=0;endArrow=none;endFill=0;" parent="1" source="411" target="343" edge="1">
                    <mxGeometry relative="1" as="geometry"/>
                </mxCell>
                <mxCell id="411" value="&lt;u&gt;EMPID&lt;/u&gt;" style="ellipse;whiteSpace=wrap;html=1;align=center;strokeWidth=2;opacity=50;" parent="1" vertex="1">
                    <mxGeometry x="-477" y="-180" width="45" height="30" as="geometry"/>
                </mxCell>
                <mxCell id="415" style="edgeStyle=none;rounded=0;orthogonalLoop=1;jettySize=auto;html=1;exitX=0;exitY=1;exitDx=0;exitDy=0;entryX=0.5;entryY=0;entryDx=0;entryDy=0;endArrow=none;endFill=0;" parent="1" source="412" target="365" edge="1">
                    <mxGeometry relative="1" as="geometry"/>
                </mxCell>
                <mxCell id="412" value="NAME" style="ellipse;whiteSpace=wrap;html=1;align=center;strokeWidth=2;opacity=50;" parent="1" vertex="1">
                    <mxGeometry x="-429.5" y="-179" width="45" height="30" as="geometry"/>
                </mxCell>
                <mxCell id="417" style="edgeStyle=none;rounded=0;orthogonalLoop=1;jettySize=auto;html=1;exitX=0;exitY=1;exitDx=0;exitDy=0;entryX=0.5;entryY=0;entryDx=0;entryDy=0;endArrow=none;endFill=0;" parent="1" source="413" target="365" edge="1">
                    <mxGeometry relative="1" as="geometry"/>
                </mxCell>
                <mxCell id="413" value="CONTACT&lt;br&gt;INFO" style="ellipse;whiteSpace=wrap;html=1;align=center;strokeWidth=2;opacity=50;" parent="1" vertex="1">
                    <mxGeometry x="-383.63" y="-183" width="66.63" height="41" as="geometry"/>
                </mxCell>
                <mxCell id="423" style="edgeStyle=none;rounded=0;orthogonalLoop=1;jettySize=auto;html=1;exitX=0.5;exitY=1;exitDx=0;exitDy=0;entryX=0.5;entryY=0;entryDx=0;entryDy=0;endArrow=none;endFill=0;" parent="1" source="418" target="363" edge="1">
                    <mxGeometry relative="1" as="geometry"/>
                </mxCell>
                <mxCell id="418" value="&lt;u&gt;DEPID&lt;/u&gt;" style="ellipse;whiteSpace=wrap;html=1;align=center;strokeWidth=2;opacity=50;" parent="1" vertex="1">
                    <mxGeometry x="-837.5" y="-176" width="45" height="30" as="geometry"/>
                </mxCell>
                <mxCell id="425" style="edgeStyle=none;rounded=0;orthogonalLoop=1;jettySize=auto;html=1;exitX=0.5;exitY=1;exitDx=0;exitDy=0;entryX=0.5;entryY=0;entryDx=0;entryDy=0;endArrow=none;endFill=0;" parent="1" source="419" target="363" edge="1">
                    <mxGeometry relative="1" as="geometry"/>
                </mxCell>
                <mxCell id="419" value="NAME" style="ellipse;whiteSpace=wrap;html=1;align=center;strokeWidth=2;opacity=50;" parent="1" vertex="1">
                    <mxGeometry x="-790" y="-175" width="45" height="30" as="geometry"/>
                </mxCell>
                <mxCell id="426" style="edgeStyle=none;rounded=0;orthogonalLoop=1;jettySize=auto;html=1;exitX=0.5;exitY=1;exitDx=0;exitDy=0;entryX=0.5;entryY=0;entryDx=0;entryDy=0;endArrow=none;endFill=0;" parent="1" source="420" target="363" edge="1">
                    <mxGeometry relative="1" as="geometry"/>
                </mxCell>
                <mxCell id="420" value="PHONE&lt;br&gt;NUMBER" style="ellipse;whiteSpace=wrap;html=1;align=center;strokeWidth=2;opacity=50;" parent="1" vertex="1">
                    <mxGeometry x="-744.13" y="-179" width="66.63" height="41" as="geometry"/>
                </mxCell>
                <mxCell id="427" style="edgeStyle=none;rounded=0;orthogonalLoop=1;jettySize=auto;html=1;exitX=0.5;exitY=1;exitDx=0;exitDy=0;entryX=0.5;entryY=0;entryDx=0;entryDy=0;endArrow=none;endFill=0;" parent="1" source="421" target="363" edge="1">
                    <mxGeometry relative="1" as="geometry"/>
                </mxCell>
                <mxCell id="421" value="ADDRESS" style="ellipse;whiteSpace=wrap;html=1;align=center;strokeWidth=2;opacity=50;" parent="1" vertex="1">
                    <mxGeometry x="-676.5" y="-173" width="70" height="26" as="geometry"/>
                </mxCell>
                <mxCell id="433" style="edgeStyle=none;rounded=0;orthogonalLoop=1;jettySize=auto;html=1;exitX=1;exitY=0.5;exitDx=0;exitDy=0;entryX=0.5;entryY=0.029;entryDx=0;entryDy=0;entryPerimeter=0;endArrow=none;endFill=0;" parent="1" source="428" target="316" edge="1">
                    <mxGeometry relative="1" as="geometry"/>
                </mxCell>
                <mxCell id="428" value="&lt;u&gt;USERID&lt;/u&gt;" style="ellipse;whiteSpace=wrap;html=1;align=center;strokeWidth=2;opacity=50;" parent="1" vertex="1">
                    <mxGeometry x="-1132" y="-162" width="55" height="28" as="geometry"/>
                </mxCell>
                <mxCell id="435" style="edgeStyle=none;rounded=0;orthogonalLoop=1;jettySize=auto;html=1;exitX=1;exitY=1;exitDx=0;exitDy=0;endArrow=none;endFill=0;" parent="1" source="429" edge="1">
                    <mxGeometry relative="1" as="geometry">
                        <mxPoint x="-962" y="-124" as="targetPoint"/>
                    </mxGeometry>
                </mxCell>
                <mxCell id="429" value="FIRST&lt;br&gt;NAME" style="ellipse;whiteSpace=wrap;html=1;align=center;strokeWidth=2;opacity=50;" parent="1" vertex="1">
                    <mxGeometry x="-1103" y="-203" width="46" height="39" as="geometry"/>
                </mxCell>
                <mxCell id="434" style="edgeStyle=none;rounded=0;orthogonalLoop=1;jettySize=auto;html=1;exitX=0.5;exitY=1;exitDx=0;exitDy=0;endArrow=none;endFill=0;" parent="1" source="430" edge="1">
                    <mxGeometry relative="1" as="geometry">
                        <mxPoint x="-962" y="-124" as="targetPoint"/>
                    </mxGeometry>
                </mxCell>
                <mxCell id="430" value="PHONE&lt;br&gt;NUMBER" style="ellipse;whiteSpace=wrap;html=1;align=center;strokeWidth=2;opacity=50;" parent="1" vertex="1">
                    <mxGeometry x="-948.63" y="-191" width="66.63" height="41" as="geometry"/>
                </mxCell>
                <mxCell id="437" style="edgeStyle=none;rounded=0;orthogonalLoop=1;jettySize=auto;html=1;exitX=0.5;exitY=1;exitDx=0;exitDy=0;endArrow=none;endFill=0;" parent="1" source="431" edge="1">
                    <mxGeometry relative="1" as="geometry">
                        <mxPoint x="-962" y="-124" as="targetPoint"/>
                    </mxGeometry>
                </mxCell>
                <mxCell id="431" value="EMAIL" style="ellipse;whiteSpace=wrap;html=1;align=center;strokeWidth=2;opacity=50;" parent="1" vertex="1">
                    <mxGeometry x="-1024.5" y="-244" width="45" height="24" as="geometry"/>
                </mxCell>
                <mxCell id="436" style="edgeStyle=none;rounded=0;orthogonalLoop=1;jettySize=auto;html=1;exitX=1;exitY=1;exitDx=0;exitDy=0;endArrow=none;endFill=0;" parent="1" source="432" edge="1">
                    <mxGeometry relative="1" as="geometry">
                        <mxPoint x="-962" y="-124" as="targetPoint"/>
                    </mxGeometry>
                </mxCell>
                <mxCell id="432" value="LAST&lt;br&gt;NAME" style="ellipse;whiteSpace=wrap;html=1;align=center;strokeWidth=2;opacity=50;" parent="1" vertex="1">
                    <mxGeometry x="-1073" y="-242" width="45" height="39" as="geometry"/>
                </mxCell>
                <mxCell id="442" style="edgeStyle=none;rounded=0;orthogonalLoop=1;jettySize=auto;html=1;exitX=0.5;exitY=0;exitDx=0;exitDy=0;entryX=1;entryY=1;entryDx=0;entryDy=0;endArrow=none;endFill=0;" parent="1" target="336" edge="1">
                    <mxGeometry relative="1" as="geometry">
                        <mxPoint x="-920.1300000000001" y="110" as="sourcePoint"/>
                        <mxPoint x="-963.5" y="76" as="targetPoint"/>
                    </mxGeometry>
                </mxCell>
                <mxCell id="438" value="&lt;u&gt;ACCID&lt;/u&gt;" style="ellipse;whiteSpace=wrap;html=1;align=center;strokeWidth=2;opacity=50;" parent="1" vertex="1">
                    <mxGeometry x="-948.63" y="110" width="55" height="28" as="geometry"/>
                </mxCell>
                <mxCell id="444" style="edgeStyle=none;rounded=0;orthogonalLoop=1;jettySize=auto;html=1;endArrow=none;endFill=0;exitX=0.5;exitY=0;exitDx=0;exitDy=0;" parent="1" source="439" edge="1">
                    <mxGeometry relative="1" as="geometry">
                        <mxPoint x="-962" y="73" as="targetPoint"/>
                        <mxPoint x="-858" y="109" as="sourcePoint"/>
                    </mxGeometry>
                </mxCell>
                <mxCell id="439" value="BLANCE" style="ellipse;whiteSpace=wrap;html=1;align=center;strokeWidth=2;opacity=50;" parent="1" vertex="1">
                    <mxGeometry x="-884.5" y="112" width="52.5" height="24" as="geometry"/>
                </mxCell>
                <mxCell id="448" style="edgeStyle=none;rounded=0;orthogonalLoop=1;jettySize=auto;html=1;exitX=1;exitY=0;exitDx=0;exitDy=0;entryX=1;entryY=0;entryDx=0;entryDy=0;endArrow=none;endFill=0;" parent="1" source="445" target="355" edge="1">
                    <mxGeometry relative="1" as="geometry"/>
                </mxCell>
                <mxCell id="445" value="&lt;u&gt;PROID&lt;/u&gt;" style="ellipse;whiteSpace=wrap;html=1;align=center;strokeWidth=2;opacity=50;" parent="1" vertex="1">
                    <mxGeometry x="-819.5" y="108" width="55" height="28" as="geometry"/>
                </mxCell>
                <mxCell id="449" style="edgeStyle=none;rounded=0;orthogonalLoop=1;jettySize=auto;html=1;exitX=0.5;exitY=0;exitDx=0;exitDy=0;endArrow=none;endFill=0;" parent="1" source="446" edge="1">
                    <mxGeometry relative="1" as="geometry">
                        <mxPoint x="-722" y="76" as="targetPoint"/>
                    </mxGeometry>
                </mxCell>
                <mxCell id="446" value="TYPE" style="ellipse;whiteSpace=wrap;html=1;align=center;strokeWidth=2;opacity=50;" parent="1" vertex="1">
                    <mxGeometry x="-718.63" y="110" width="41.63" height="26" as="geometry"/>
                </mxCell>
                <mxCell id="450" style="edgeStyle=none;rounded=0;orthogonalLoop=1;jettySize=auto;html=1;exitX=0;exitY=0;exitDx=0;exitDy=0;endArrow=none;endFill=0;" parent="1" source="447" edge="1">
                    <mxGeometry relative="1" as="geometry">
                        <mxPoint x="-722" y="76" as="targetPoint"/>
                    </mxGeometry>
                </mxCell>
                <mxCell id="447" value="COST" style="ellipse;whiteSpace=wrap;html=1;align=center;strokeWidth=2;opacity=50;" parent="1" vertex="1">
                    <mxGeometry x="-672" y="107" width="38" height="30" as="geometry"/>
                </mxCell>
                <mxCell id="455" style="edgeStyle=none;rounded=0;orthogonalLoop=1;jettySize=auto;html=1;exitX=0;exitY=1;exitDx=0;exitDy=0;entryX=1;entryY=0;entryDx=0;entryDy=0;endArrow=none;endFill=0;" parent="1" source="452" target="301" edge="1">
                    <mxGeometry relative="1" as="geometry"/>
                </mxCell>
                <mxCell id="452" value="UNIT&lt;br&gt;COST" style="ellipse;whiteSpace=wrap;html=1;align=center;strokeWidth=2;opacity=50;" parent="1" vertex="1">
                    <mxGeometry x="-561" y="191" width="43.5" height="35" as="geometry"/>
                </mxCell>
                <mxCell id="453" value="UNIT&lt;br&gt;AMOUNT" style="ellipse;whiteSpace=wrap;html=1;align=center;strokeWidth=2;opacity=50;" parent="1" vertex="1">
                    <mxGeometry x="-508.5" y="193.5" width="76.5" height="30" as="geometry"/>
                </mxCell>
                <mxCell id="456" value="UNIT&lt;br&gt;PRICE" style="ellipse;whiteSpace=wrap;html=1;align=center;strokeWidth=2;opacity=50;" parent="1" vertex="1">
                    <mxGeometry x="-879.5" y="-75" width="47.5" height="41" as="geometry"/>
                </mxCell>
                <mxCell id="459" style="edgeStyle=none;rounded=0;orthogonalLoop=1;jettySize=auto;html=1;exitX=0.5;exitY=1;exitDx=0;exitDy=0;endArrow=none;endFill=0;" parent="1" source="457" edge="1">
                    <mxGeometry relative="1" as="geometry">
                        <mxPoint x="-832" y="36" as="targetPoint"/>
                    </mxGeometry>
                </mxCell>
                <mxCell id="457" value="UNIT&lt;br&gt;NUM" style="ellipse;whiteSpace=wrap;html=1;align=center;strokeWidth=2;opacity=50;" parent="1" vertex="1">
                    <mxGeometry x="-827" y="-68" width="45" height="28.5" as="geometry"/>
                </mxCell>
                <mxCell id="462" style="edgeStyle=none;rounded=0;orthogonalLoop=1;jettySize=auto;html=1;exitX=0;exitY=1;exitDx=0;exitDy=0;entryX=1;entryY=0;entryDx=0;entryDy=0;endArrow=none;endFill=0;" parent="1" source="460" target="267" edge="1">
                    <mxGeometry relative="1" as="geometry"/>
                </mxCell>
                <mxCell id="460" value="PROFEATURE" style="ellipse;whiteSpace=wrap;html=1;align=center;strokeWidth=2;opacity=50;" parent="1" vertex="1">
                    <mxGeometry x="-661.13" y="-250" width="99.13" height="26" as="geometry"/>
                </mxCell>
            </root>
        </mxGraphModel>
    </diagram>
</mxfile>